<svg width="60" height="60" fill="none" xmlns="http://www.w3.org/2000/svg"><circle cx="30" cy="30" r="30" fill="#D3D3D3"/><g clip-path="url(#a)"><path fill-rule="evenodd" clip-rule="evenodd" d="M18.37 18.37a.536.536 0 0 1 .38-.156h3.214a1.607 1.607 0 1 0 0-3.214H18.75A3.75 3.75 0 0 0 15 18.75v3.214a1.607 1.607 0 1 0 3.214 0V18.75a.535.535 0 0 1 .157-.38ZM45 38.037a1.607 1.607 0 1 0-3.214 0v3.214a.536.536 0 0 1-.536.536h-3.214a1.607 1.607 0 1 0 0 3.214h3.214A3.75 3.75 0 0 0 45 41.25v-3.214Zm-28.393-1.607a1.607 1.607 0 0 1 1.607 1.607v3.214a.536.536 0 0 0 .536.536h3.214a1.607 1.607 0 1 1 0 3.214H18.75A3.75 3.75 0 0 1 15 41.25v-3.214a1.607 1.607 0 0 1 1.607-1.607ZM38.036 15a1.607 1.607 0 1 0 0 3.214h3.214a.536.536 0 0 1 .536.536v3.214a1.607 1.607 0 1 0 3.214 0V18.75A3.75 3.75 0 0 0 41.25 15h-3.214ZM30 31.663a9.477 9.477 0 0 0-8.882 6.17c-.24.64.272 1.274.956 1.274h15.848c.686 0 1.196-.634.958-1.275a9.478 9.478 0 0 0-8.88-6.17Zm4.731-7.104a4.737 4.737 0 1 1-9.473 0 4.737 4.737 0 0 1 9.473 0Z" fill="#007AFF"/></g><defs><clipPath id="a"><path fill="#fff" transform="translate(15 15)" d="M0 0h30v30H0z"/></clipPath></defs></svg>