<svg width="30" height="30" viewBox="0 0 30 30" fill="none" xmlns="http://www.w3.org/2000/svg">
<g clip-path="url(#clip0_210_251)">
<path d="M4.54494 14.1162C4.3106 14.3507 4.17896 14.6685 4.17896 15C4.17896 15.3315 4.3106 15.6493 4.54494 15.8837L11.6162 22.955C11.7315 23.0744 11.8694 23.1696 12.0219 23.2351C12.1744 23.3006 12.3385 23.3351 12.5044 23.3366C12.6704 23.338 12.835 23.3064 12.9886 23.2435C13.1423 23.1807 13.2818 23.0879 13.3992 22.9705C13.5165 22.8531 13.6094 22.7136 13.6722 22.5599C13.7351 22.4063 13.7667 22.2417 13.7653 22.0757C13.7638 21.9098 13.7293 21.7457 13.6638 21.5932C13.5983 21.4407 13.5031 21.3028 13.3837 21.1875L8.44619 16.25H24.9999C25.3315 16.25 25.6494 16.1183 25.8838 15.8839C26.1182 15.6495 26.2499 15.3315 26.2499 15C26.2499 14.6685 26.1182 14.3505 25.8838 14.1161C25.6494 13.8817 25.3315 13.75 24.9999 13.75L8.44619 13.75L13.3837 8.8125C13.6114 8.57674 13.7374 8.26099 13.7345 7.93325C13.7317 7.6055 13.6002 7.29199 13.3685 7.06023C13.1367 6.82847 12.8232 6.697 12.4954 6.69416C12.1677 6.69131 11.8519 6.8173 11.6162 7.045L4.54494 14.1162Z" fill="#3C3C3C"/>
</g>
<defs>
<clipPath id="clip0_210_251">
<rect width="30" height="30" fill="white" transform="matrix(0 -1 1 0 0 30)"/>
</clipPath>
</defs>
</svg>
