<svg width="60" height="60" fill="none" xmlns="http://www.w3.org/2000/svg"><circle cx="30" cy="30" r="30" fill="#D3D3D3"/><path d="M28.732 37.118a1.406 1.406 0 0 1 0 1.992l-.6.6a6.827 6.827 0 0 1-4.859 2.009 6.87 6.87 0 0 1-4.858-11.728l4.072-4.073a6.873 6.873 0 0 1 11.55 3.294 1.406 1.406 0 1 1-2.739.638 4.06 4.06 0 0 0-6.822-1.943l-4.073 4.072a4.058 4.058 0 1 0 5.737 5.739l.599-.6a1.407 1.407 0 0 1 1.993 0Zm12.85-16.825a6.873 6.873 0 0 0-9.719 0l-.599.6a1.409 1.409 0 1 0 1.993 1.991l.6-.6a4.06 4.06 0 0 1 5.742 5.743l-4.08 4.066a4.031 4.031 0 0 1-2.87 1.188 4.06 4.06 0 0 1-3.948-3.131 1.407 1.407 0 0 0-2.74.638 6.872 6.872 0 0 0 6.683 5.306h.006a6.829 6.829 0 0 0 4.86-2.012l4.072-4.073a6.872 6.872 0 0 0 0-9.716Z" fill="#007AFF"/></svg>