<svg width="186" height="109" fill="none" xmlns="http://www.w3.org/2000/svg"><path d="M15.344 57.25c1.34-.215 2.852-1.528 4.536-3.94a37.614 37.614 0 0 0 3.09-5.25c-1.403.225-2.663.679-3.78 1.361-1.12.674-2.064 1.448-2.83 2.322-.77.865-1.338 1.72-1.706 2.567-.368.847-.508 1.551-.418 2.114.105.652.474.927 1.108.826Zm14.24 8.878c-.644.103-1.093-.187-1.349-.87-.552-1.505-1.145-3.324-1.78-5.458-.625-2.135-1.16-4.587-1.602-7.355-.16-1-.298-2-.411-2.998-.223.557-.535 1.24-.937 2.046a29.593 29.593 0 0 1-1.42 2.549 21.52 21.52 0 0 1-1.83 2.56 12.284 12.284 0 0 1-2.145 2.046c-.76.57-1.552.922-2.374 1.053-1.09.175-2.03-.005-2.82-.538-.78-.525-1.25-1.293-1.412-2.302-.189-1.179-.078-2.291.331-3.337.409-1.054 1.033-2.02 1.873-2.896a14.41 14.41 0 0 1 2.961-2.356 20.063 20.063 0 0 1 3.6-1.716c1.273-.46 2.535-.79 3.785-.99.208-.593.472-1.06.792-1.405.33-.346.664-.546 1.003-.6.902-.145 1.456.422 1.66 1.699.07.438.122 1.107.156 2.008a70.86 70.86 0 0 0 .827 8.689c.239 1.491.479 2.763.72 3.814.25 1.05.47 1.908.66 2.574.143.499.293.974.447 1.426.155.451.253.807.294 1.066.117.732-.226 1.162-1.03 1.291ZM42.98 94.141c-1.047.644-1.957.338-2.729-.919-.833-1.356-1.805-3.173-2.918-5.451-1.446-2.944-2.484-5.48-3.112-7.61-.791-2.688-.724-4.316.2-4.883.232-.143.494-.182.788-.118.43.096 1.033.395 1.808.896 1.245.817 2.569 1.66 3.972 2.528 6.335 3.954 10.3 5.44 11.895 4.461.817-.502.951-1.752.403-3.75-.45-1.614-1.21-3.492-2.282-5.636a57.272 57.272 0 0 0-2.248-4.048c-.473-.771-.413-1.339.18-1.703.632-.388 1.185-.197 1.658.574l.724 1.179c1.065 1.734 1.928 3.242 2.588 4.525 1.237 2.446 1.992 4.566 2.267 6.361.336 2.224-.205 3.772-1.623 4.643-2.312 1.42-5.684.985-10.114-1.304-1.717-.877-4.149-2.356-7.294-4.437.604 1.763 1.436 3.566 2.494 5.41a126.409 126.409 0 0 0 2.037 3.446l1.822 2.941c.766 1.249.595 2.214-.515 2.895ZM63.946 83.092c-.477.196-.939.13-1.385-.194-.235-.168-.42-.415-.553-.741-.13-.318-.212-.706-.242-1.162a68.696 68.696 0 0 1-.128-7.353c.124-3.414.516-6.332 1.175-8.753.807-2.941 2.018-4.743 3.633-5.406 1.907-.783 3.955-.176 6.143 1.82 1.778 1.617 3.53 3.9 5.258 6.847 1.303 2.222 2.379 4.332 3.228 6.33.165.402.172.766.022 1.091-.15.326-.396.559-.74.7-.644.264-1.158-.024-1.541-.864-.833-1.79-2.037-3.842-3.612-6.158-1.67.841-3.37 1.94-5.1 3.295a97.297 97.297 0 0 0-4.943 4.11c.076 1.377.16 2.594.252 3.651.063.727-.048 1.325-.335 1.794-.286.47-.664.8-1.132.993Zm1.106-9.707c1.203-1.022 2.744-2.162 4.623-3.422 1.875-1.268 3.344-2.12 4.406-2.556-2.835-4.243-5.04-6.041-6.613-5.396-1.732.71-2.537 4.502-2.416 11.374ZM95.488 70.741c-2.522 1.944-6.237.856-11.147-3.262-2.605-2.195-4.752-4.388-6.441-6.58-.795-1.032-.72-1.912.226-2.641 1.01-.779 1.969-.616 2.877.489 3.505 4.31 6.484 7.295 8.94 8.954 1.797 1.207 3.13 1.476 3.996.808.81-.624.81-2.594.002-5.91-.81-3.316-2.205-7.476-4.188-12.48-.133-.32-.16-.6-.085-.842.071-.249.196-.442.375-.58.215-.166.463-.237.744-.214.28.024.52.164.72.422.093.122.177.268.252.44 1.682 4.287 2.862 7.374 3.54 9.26.68 1.875 1.188 3.602 1.525 5.18.338 1.579.42 2.96.247 4.143-.16 1.185-.687 2.123-1.583 2.813ZM44.95 53.72c-2.083.758-3.913.636-5.492-.367-1.363-.86-2.4-2.268-3.113-4.222-.502-1.377-.83-2.884-.985-4.522-.05-.53.047-.965.29-1.304.248-.35.554-.592.92-.725.382-.14.771-.128 1.168.036.402.151.693.474.873.967.07.195.119.419.143.67.142 1.604.431 3.005.868 4.203.49 1.342 1.12 2.278 1.89 2.806.775.516 1.651.596 2.629.24 2.2-.803 3.384-2.823 3.552-6.061a15.937 15.937 0 0 0-.457-4.657c-.142-.574-.137-1.038.013-1.39.156-.366.425-.618.807-.757.34-.124.68-.118 1.018.019.347.133.628.415.843.847a34.943 34.943 0 0 0 2.035 3.562c.739 1.126 1.369 1.97 1.89 2.53.266.28.442.538.529.775.232.638.068 1.059-.493 1.263-.416.152-.816.11-1.2-.125-.385-.236-1.068-.882-2.05-1.939a15.985 15.985 0 0 1-.781-.913c-.121 4.896-1.754 7.917-4.898 9.063ZM56.692 32.144c-.476.174-.891.142-1.247-.094a1.944 1.944 0 0 1-.74-.958 2.358 2.358 0 0 1-.064-1.406c.12-.487.436-.823.946-1.009.459-.167.869-.124 1.23.129.36.244.613.57.762.979.161.442.184.9.069 1.375-.119.467-.438.795-.956.984Zm5.639 14.118c-.74.27-1.363-.148-1.872-1.253l-2.54-5.5c-.548-1.186-.924-2.06-1.129-2.62-.48-1.318-.202-2.165.835-2.543.935-.341 1.647.16 2.136 1.502.387 1.062.912 2.421 1.573 4.077a143.49 143.49 0 0 1 1.457 3.757c.518 1.42.364 2.28-.46 2.58ZM76.919 39.086c-2.192.8-4.166.88-5.92.239-1.758-.65-3.001-1.973-3.73-3.97-.542-1.486-.645-2.917-.308-4.291a8.029 8.029 0 0 1 1.993-3.644c.989-1.063 2.197-1.855 3.624-2.376.986-.36 1.933-.536 2.84-.53 1.139.009 1.855.416 2.15 1.224.099.271.084.56-.045.868-.123.295-.431.532-.924.712-.314.115-.76.2-1.336.256a6.092 6.092 0 0 0-1.622.346c-1.385.505-2.459 1.335-3.222 2.49-.755 1.15-.869 2.448-.342 3.893.477 1.309 1.278 2.157 2.402 2.547 1.124.389 2.374.332 3.75-.17a9.156 9.156 0 0 0 3.54-2.33c.245-.253.508-.43.788-.533.28-.102.516-.116.707-.04.191.074.325.218.403.43.189.518.04 1.126-.447 1.824-.39.566-.987 1.134-1.79 1.706a10.136 10.136 0 0 1-2.511 1.35ZM93.191 34.37c-.56.312-1.24.161-2.036-.452-1.817-1.37-4.83-5.842-9.039-13.416-.61-1.099-.41-1.93.602-2.492 1.004-.558 1.818-.275 2.442.847.374.672.845 1.559 1.416 2.66.893 1.738 1.775 3.39 2.645 4.955.848 1.526 1.658 2.835 2.43 3.926.23-2.249.582-4.27 1.054-6.064.48-1.798 1.24-3.876 2.279-6.233.265-.603.639-1.038 1.12-1.306.412-.229.716-.175.913.16.294.53.27 1.211-.075 2.044-.707 1.707-1.228 3.274-1.562 4.702 2.123.786 4.026 1.286 5.707 1.5.651.073 1.102.335 1.352.785.211.38.06.712-.454.998-.609.338-2.075.325-4.399-.039a21.074 21.074 0 0 1-2.704-.593 188.37 188.37 0 0 0-.597 4.4c-.15 1.313-.337 2.271-.561 2.872-.134.374-.311.623-.533.746Z" fill="#007AFF"/><g clip-path="url(#a)"><path d="M108.691 62.469c.903-2.879 3.186-4.067 5.434-4.888a47.235 47.235 0 0 1 9.694-2.28c15.061-1.478 28.482 3.005 40.236 12.454 2.98 2.413 5.666 5.29 8.775 8.274 1.423-3.753.352-7.95 1.609-11.907 1.441 1.077 1.486 2.506 1.555 3.69.263 4.856.459 9.768.532 14.667.015 2.355-.75 3.204-2.955 2.976-4.601-.413-8.634-2.192-11.976-5.323-.111-.136-.074-.503-.081-1.061 3.502-1.62 5.865 2.649 9.46 1.968-2.732-5.546-7.184-9.349-11.929-12.687-4.979-3.487-10.195-6.44-16.035-8.096-5.717-1.643-11.5-1.993-17.454-1.865-5.942.005-11.472 1.477-16.865 4.078Z" fill="#007AFF"/></g><defs><clipPath id="a"><path fill="#fff" transform="rotate(-39.231 140.453 -120.707)" d="M0 0h50v61H0z"/></clipPath></defs></svg>