<svg width="60" height="60" fill="none" xmlns="http://www.w3.org/2000/svg"><circle cx="30" cy="30" r="30" fill="#D3D3D3"/><g clip-path="url(#a)"><path d="M18.504 41.614h21.992c1.339 0 2.341-.328 3.006-.984.665-.657.998-1.646.998-2.968v-12.61c0-1.33-.333-2.32-.998-2.973-.665-.652-1.667-.979-3.006-.979H18.504c-1.33 0-2.33.327-3 .979-.67.652-1.004 1.643-1.004 2.974v12.61c0 1.32.335 2.31 1.004 2.967.67.656 1.67.984 3 .984Zm4.42-19.386h2.008v-2.294c0-.492.138-.872.415-1.14.276-.268.67-.402 1.179-.402h5.948c.501 0 .89.134 1.166.402.277.268.415.648.415 1.14v2.268h2.009v-2.125c0-1.219-.311-2.12-.933-2.702-.622-.583-1.52-.875-2.696-.875h-5.883c-1.106 0-1.987.292-2.644.875-.656.583-.985 1.483-.985 2.702v2.15Z" fill="#007AFF"/></g><defs><clipPath id="a"><path fill="#fff" transform="translate(14.5 16.5)" d="M0 0h30v27.667H0z"/></clipPath></defs></svg>