<svg width="60" height="60" viewBox="0 0 60 60" fill="none" xmlns="http://www.w3.org/2000/svg">
<circle cx="30" cy="30" r="30" fill="#D3D3D3"/>
<g clip-path="url(#clip0_210_237)">
<path fill-rule="evenodd" clip-rule="evenodd" d="M18.3707 18.3707C18.4206 18.321 18.4797 18.2816 18.5448 18.2548C18.6099 18.2279 18.6796 18.2142 18.75 18.2143H21.9643C22.3905 18.2143 22.7993 18.045 23.1007 17.7436C23.4021 17.4422 23.5714 17.0334 23.5714 16.6071C23.5714 16.1809 23.4021 15.7721 23.1007 15.4707C22.7993 15.1693 22.3905 15 21.9643 15H18.75C17.7554 15 16.8016 15.3951 16.0983 16.0983C15.3951 16.8016 15 17.7554 15 18.75V21.9643C15 22.3905 15.1693 22.7993 15.4707 23.1007C15.7721 23.4021 16.1809 23.5714 16.6071 23.5714C17.0334 23.5714 17.4422 23.4021 17.7436 23.1007C18.045 22.7993 18.2143 22.3905 18.2143 21.9643V18.75C18.2142 18.6796 18.2279 18.6099 18.2548 18.5448C18.2816 18.4797 18.321 18.4206 18.3707 18.3707ZM45 38.0357C45 37.6095 44.8307 37.2007 44.5293 36.8993C44.2279 36.5979 43.8191 36.4286 43.3929 36.4286C42.9666 36.4286 42.5578 36.5979 42.2564 36.8993C41.955 37.2007 41.7857 37.6095 41.7857 38.0357V41.25C41.7857 41.3921 41.7293 41.5283 41.6288 41.6288C41.5283 41.7293 41.3921 41.7857 41.25 41.7857H38.0357C37.6095 41.7857 37.2007 41.955 36.8993 42.2564C36.5979 42.5578 36.4286 42.9666 36.4286 43.3929C36.4286 43.8191 36.5979 44.2279 36.8993 44.5293C37.2007 44.8307 37.6095 45 38.0357 45H41.25C42.2446 45 43.1984 44.6049 43.9017 43.9017C44.6049 43.1984 45 42.2446 45 41.25V38.0357ZM16.6071 36.4286C17.0334 36.4286 17.4422 36.5979 17.7436 36.8993C18.045 37.2007 18.2143 37.6095 18.2143 38.0357V41.25C18.2143 41.3921 18.2707 41.5283 18.3712 41.6288C18.4717 41.7293 18.6079 41.7857 18.75 41.7857H21.9643C22.3905 41.7857 22.7993 41.955 23.1007 42.2564C23.4021 42.5578 23.5714 42.9666 23.5714 43.3929C23.5714 43.8191 23.4021 44.2279 23.1007 44.5293C22.7993 44.8307 22.3905 45 21.9643 45H18.75C17.7554 45 16.8016 44.6049 16.0983 43.9017C15.3951 43.1984 15 42.2446 15 41.25V38.0357C15 37.6095 15.1693 37.2007 15.4707 36.8993C15.7721 36.5979 16.1809 36.4286 16.6071 36.4286ZM38.0357 15C37.6095 15 37.2007 15.1693 36.8993 15.4707C36.5979 15.7721 36.4286 16.1809 36.4286 16.6071C36.4286 17.0334 36.5979 17.4422 36.8993 17.7436C37.2007 18.045 37.6095 18.2143 38.0357 18.2143H41.25C41.3921 18.2143 41.5283 18.2707 41.6288 18.3712C41.7293 18.4717 41.7857 18.6079 41.7857 18.75V21.9643C41.7857 22.3905 41.955 22.7993 42.2564 23.1007C42.5578 23.4021 42.9666 23.5714 43.3929 23.5714C43.8191 23.5714 44.2279 23.4021 44.5293 23.1007C44.8307 22.7993 45 22.3905 45 21.9643V18.75C45 17.7554 44.6049 16.8016 43.9017 16.0983C43.1984 15.3951 42.2446 15 41.25 15H38.0357ZM30 31.6629C28.067 31.6627 26.1803 32.2537 24.5927 33.3564C23.0051 34.459 21.7926 36.0208 21.1179 37.8321C20.8779 38.4729 21.39 39.1071 22.0736 39.1071H37.9221C38.6079 39.1071 39.1179 38.4729 38.88 37.8321C38.2052 36.0208 36.9928 34.459 35.4052 33.3564C33.8176 32.2537 31.933 31.6627 30 31.6629ZM34.7314 24.5593C34.7314 25.8156 34.2324 27.0204 33.3441 27.9087C32.4557 28.797 31.2509 29.2961 29.9946 29.2961C28.7384 29.2961 27.5335 28.797 26.6452 27.9087C25.7569 27.0204 25.2579 25.8156 25.2579 24.5593C25.2579 23.303 25.7569 22.0982 26.6452 21.2099C27.5335 20.3216 28.7384 19.8225 29.9946 19.8225C31.2509 19.8225 32.4557 20.3216 33.3441 21.2099C34.2324 22.0982 34.7314 23.303 34.7314 24.5593Z" fill="#007AFF"/>
</g>
<defs>
<clipPath id="clip0_210_237">
<rect width="30" height="30" fill="white" transform="translate(15 15)"/>
</clipPath>
</defs>
</svg>
