<svg width="60" height="60" viewBox="0 0 60 60" fill="none" xmlns="http://www.w3.org/2000/svg">
<circle cx="30" cy="30" r="30" fill="#D3D3D3"/>
<g clip-path="url(#clip0_42_246)">
<path d="M19.6168 44.5325H39.3832C41.0888 44.5325 42.368 44.1115 43.2208 43.2696C44.0736 42.4277 44.5 41.1648 44.5 39.4809V19.5841C44.5 17.9003 44.0736 16.6374 43.2208 15.7954C42.368 14.9535 41.0888 14.5325 39.3832 14.5325H19.6168C17.9112 14.5325 16.632 14.9535 15.7792 15.7954C14.9264 16.6374 14.5 17.9003 14.5 19.5841V39.4809C14.5 41.1648 14.9264 42.4277 15.7792 43.2696C16.632 44.1115 17.9112 44.5325 19.6168 44.5325ZM18.525 42.0882C18.84 41.0562 19.337 40.1056 20.016 39.2365C20.695 38.3674 21.5179 37.6152 22.4848 36.9796C23.4517 36.3441 24.5299 35.8498 25.7195 35.4967C26.909 35.1436 28.1719 34.9671 29.5082 34.9671C30.8444 34.9671 32.1073 35.1436 33.2968 35.4967C34.4864 35.8498 35.5674 36.3441 36.5397 36.9796C37.5119 37.6152 38.3376 38.3674 39.0166 39.2365C39.6955 40.1056 40.1871 41.0562 40.4914 42.0882H18.525ZM29.5082 32.2458C28.4652 32.2349 27.5255 31.9633 26.689 31.431C25.8525 30.8987 25.1871 30.1735 24.6928 29.2555C24.1985 28.3375 23.946 27.2973 23.9351 26.1349C23.9351 25.0486 24.1822 24.0518 24.6765 23.1447C25.1708 22.2376 25.839 21.5124 26.6809 20.9693C27.5228 20.4261 28.4652 20.1545 29.5082 20.1545C30.5402 20.1545 31.4772 20.4261 32.3191 20.9693C33.161 21.5124 33.8319 22.2376 34.3317 23.1447C34.8314 24.0518 35.0812 25.0486 35.0812 26.1349C35.0812 27.2973 34.8314 28.343 34.3317 29.2718C33.8319 30.2007 33.161 30.9312 32.3191 31.4635C31.4772 31.9958 30.5402 32.2566 29.5082 32.2458Z" fill="#007AFF"/>
</g>
<defs>
<clipPath id="clip0_42_246">
<rect width="30" height="30.0325" fill="white" transform="translate(14.5 14.5)"/>
</clipPath>
</defs>
</svg>
