<svg width="25" height="25" viewBox="0 0 25 25" fill="none" xmlns="http://www.w3.org/2000/svg">
<path d="M4.27789 21.6116C3.58169 21.6116 2.91401 21.335 2.42173 20.8427C1.92945 20.3504 1.65289 19.6828 1.65289 18.9866V15.2366C1.65289 14.9382 1.77141 14.6521 1.98239 14.4411C2.19337 14.2301 2.47952 14.1116 2.77789 14.1116C3.07625 14.1116 3.3624 14.2301 3.57338 14.4411C3.78436 14.6521 3.90289 14.9382 3.90289 15.2366V18.9866C3.90289 19.1936 4.07089 19.3616 4.27789 19.3616H20.0279C20.1273 19.3616 20.2227 19.3221 20.2931 19.2517C20.3634 19.1814 20.4029 19.086 20.4029 18.9866V15.2366C20.4029 14.9382 20.5214 14.6521 20.7324 14.4411C20.9434 14.2301 21.2295 14.1116 21.5279 14.1116C21.8263 14.1116 22.1124 14.2301 22.3234 14.4411C22.5344 14.6521 22.6529 14.9382 22.6529 15.2366V18.9866C22.6529 19.6828 22.3763 20.3504 21.884 20.8427C21.3918 21.335 20.7241 21.6116 20.0279 21.6116H4.27789Z" fill="#007AFF"/>
<path d="M11.0279 12.1451V3.61157C11.0279 3.3132 11.1464 3.02706 11.3574 2.81608C11.5684 2.6051 11.8545 2.48657 12.1529 2.48657C12.4513 2.48657 12.7374 2.6051 12.9484 2.81608C13.1594 3.02706 13.2779 3.3132 13.2779 3.61157V12.1451L16.2329 9.19157C16.3373 9.08717 16.4612 9.00436 16.5976 8.94785C16.734 8.89135 16.8802 8.86227 17.0279 8.86227C17.1755 8.86227 17.3217 8.89135 17.4581 8.94785C17.5945 9.00436 17.7185 9.08717 17.8229 9.19157C17.9273 9.29597 18.0101 9.41991 18.0666 9.55632C18.1231 9.69273 18.1522 9.83893 18.1522 9.98657C18.1522 10.1342 18.1231 10.2804 18.0666 10.4168C18.0101 10.5532 17.9273 10.6772 17.8229 10.7816L12.9479 15.6566C12.7369 15.8672 12.451 15.9856 12.1529 15.9856C11.8548 15.9856 11.5688 15.8672 11.3579 15.6566L6.48288 10.7816C6.37848 10.6772 6.29567 10.5532 6.23917 10.4168C6.18266 10.2804 6.15358 10.1342 6.15358 9.98657C6.15358 9.83893 6.18266 9.69273 6.23917 9.55632C6.29567 9.41991 6.37848 9.29597 6.48288 9.19157C6.58728 9.08717 6.71123 9.00436 6.84763 8.94785C6.98404 8.89135 7.13024 8.86227 7.27788 8.86227C7.42553 8.86227 7.57173 8.89135 7.70813 8.94785C7.84454 9.00436 7.96848 9.08717 8.07288 9.19157L11.0279 12.1451Z" fill="#007AFF"/>
</svg>
