<svg width="60" height="60" viewBox="0 0 60 60" fill="none" xmlns="http://www.w3.org/2000/svg">
<circle cx="30" cy="30" r="30" fill="#D3D3D3"/>
<g clip-path="url(#clip0_42_258)">
<path d="M43.4377 24.6144L32.491 19.6051C31.917 19.3442 31.3896 19.1541 30.9089 19.0348C30.4281 18.9156 29.9566 18.8597 29.4944 18.8671C29.0397 18.8597 28.57 18.9156 28.0855 19.0348C27.601 19.1541 27.0718 19.3442 26.4977 19.6051L15.5622 24.6144C15.2044 24.7709 14.9379 24.9834 14.7628 25.2518C14.5876 25.5201 14.5 25.7959 14.5 26.0792C14.5 26.3699 14.5876 26.6457 14.7628 26.9066C14.9379 27.1675 15.2044 27.38 15.5622 27.5439L20.169 29.6461L27.2469 26.3252C27.1873 26.2506 27.1575 26.1686 27.1575 26.0792C27.1575 25.8406 27.273 25.6282 27.5041 25.4419C27.7352 25.2554 28.0334 25.1082 28.3986 25.0001C28.7639 24.8921 29.1441 24.838 29.5392 24.838C29.9417 24.838 30.3237 24.8921 30.6852 25.0001C31.0468 25.1082 31.3412 25.2554 31.5685 25.4419C31.7959 25.6282 31.9096 25.8406 31.9096 26.0792C31.9096 26.3252 31.7959 26.5432 31.5685 26.7333C31.3412 26.9233 31.0468 27.0743 30.6852 27.1861C30.3237 27.2979 29.9417 27.3539 29.5392 27.3539C29.1589 27.3539 28.8048 27.3054 28.4768 27.2086L21.7232 30.3728L26.4977 32.5645C27.0792 32.8254 27.6103 33.0154 28.0911 33.1347C28.5719 33.254 29.0397 33.3099 29.4944 33.3024C29.9566 33.3099 30.4281 33.254 30.9089 33.1347C31.3896 33.0154 31.917 32.8254 32.491 32.5645L43.4377 27.5439C43.7955 27.38 44.062 27.1675 44.2372 26.9066C44.4124 26.6457 44.5 26.3699 44.5 26.0792C44.5 25.7959 44.4124 25.5201 44.2372 25.2518C44.062 24.9834 43.7955 24.7709 43.4377 24.6144ZM21.6785 32.0277V38.826C22.6178 39.4001 23.749 39.8492 25.0721 40.1735C26.3953 40.4977 27.8693 40.6599 29.4944 40.6599C31.1418 40.6599 32.6327 40.4977 33.967 40.1735C35.3013 39.8492 36.4418 39.4019 37.3885 38.8317C38.3352 38.2615 39.0639 37.6036 39.5745 36.8582C40.0852 36.1127 40.3405 35.3225 40.3405 34.4877V30.6412L33.1283 33.9398C31.8089 34.5436 30.5976 34.8418 29.4944 34.8343C28.3986 34.8418 27.1873 34.5436 25.8604 33.9398L21.6785 32.0277ZM18.6595 30.6412V34.4877C18.6595 34.9722 18.7937 35.4996 19.0621 36.0698C19.3304 36.6401 19.718 37.1824 20.2249 37.6967V31.3681L18.6595 30.6412ZM20.2249 41.4202H21.6785V38.826C21.4027 38.6546 21.1418 38.4757 20.8958 38.2894C20.6498 38.103 20.4262 37.9054 20.2249 37.6967V41.4202ZM19.3416 41.4984V44.4392C19.3416 44.8791 19.4739 45.2312 19.7385 45.4958C20.0032 45.7605 20.3554 45.8928 20.7952 45.8928H21.0971C21.5369 45.8928 21.8891 45.7605 22.1537 45.4958C22.4184 45.2312 22.5507 44.8791 22.5507 44.4392V41.4984C22.5507 41.0587 22.4184 40.7065 22.1537 40.4419C21.8891 40.1772 21.5369 40.0449 21.0971 40.0449H20.7952C20.3554 40.0449 20.0032 40.1772 19.7385 40.4419C19.4739 40.7065 19.3416 41.0587 19.3416 41.4984Z" fill="#007AFF"/>
</g>
<defs>
<clipPath id="clip0_42_258">
<rect width="30" height="32.3928" fill="white" transform="translate(14.5 13.5)"/>
</clipPath>
</defs>
</svg>
