<svg width="60" height="60" viewBox="0 0 60 60" fill="none" xmlns="http://www.w3.org/2000/svg">
<circle cx="30" cy="30" r="30" fill="#D3D3D3"/>
<path d="M28.7319 37.118C28.863 37.2487 28.9671 37.4039 29.038 37.5748C29.109 37.7458 29.1456 37.929 29.1456 38.1141C29.1456 38.2992 29.109 38.4824 29.038 38.6534C28.9671 38.8243 28.863 38.9796 28.7319 39.1102L28.1319 39.7102C27.495 40.3495 26.7377 40.8561 25.9037 41.2009C25.0698 41.5457 24.1758 41.7217 23.2733 41.7188C21.9144 41.7192 20.5858 41.3166 19.4557 40.5618C18.3256 39.807 17.4448 38.7339 16.9246 37.4784C16.4045 36.2229 16.2685 34.8413 16.5337 33.5085C16.799 32.1756 17.4536 30.9514 18.4148 29.9907L22.487 25.9184C23.3532 25.0524 24.4351 24.4336 25.6207 24.1261C26.8064 23.8186 28.0527 23.8336 29.2306 24.1695C30.4085 24.5055 31.4751 25.1502 32.3202 26.0368C33.1653 26.9235 33.758 28.0199 34.037 29.2125C34.0832 29.3939 34.0928 29.5826 34.0651 29.7677C34.0375 29.9528 33.9731 30.1305 33.8759 30.2904C33.7787 30.4503 33.6505 30.5892 33.4989 30.6989C33.3474 30.8086 33.1754 30.887 32.9931 30.9294C32.8109 30.9719 32.622 30.9775 32.4375 30.946C32.2531 30.9145 32.0767 30.8464 31.9189 30.7459C31.7611 30.6454 31.6249 30.5144 31.5183 30.3605C31.4118 30.2067 31.337 30.0331 31.2983 29.85C31.1328 29.146 30.7822 28.499 30.2828 27.9758C29.7834 27.4527 29.1534 27.0724 28.4578 26.8743C27.7622 26.6762 27.0263 26.6675 26.3263 26.8491C25.6262 27.0307 24.9873 27.3959 24.4757 27.9071L20.4034 31.9793C19.8358 32.5465 19.4491 33.2693 19.2922 34.0563C19.1354 34.8432 19.2154 35.659 19.5223 36.4005C19.8291 37.142 20.3489 37.7758 21.016 38.2218C21.683 38.6679 22.4674 38.9061 23.2698 38.9063C23.803 38.9079 24.3312 38.8036 24.8238 38.5997C25.3165 38.3957 25.7637 38.096 26.1398 37.718L26.7386 37.118C26.8693 36.9867 27.0246 36.8826 27.1956 36.8115C27.3666 36.7404 27.55 36.7038 27.7353 36.7038C27.9205 36.7038 28.1039 36.7404 28.2749 36.8115C28.446 36.8826 28.6013 36.9867 28.7319 37.118ZM41.5816 20.2934C40.2927 19.0049 38.5448 18.2811 36.7224 18.2811C34.8999 18.2811 33.1521 19.0049 31.8632 20.2934L31.2644 20.8922C31.0002 21.1564 30.8518 21.5147 30.8518 21.8883C30.8518 22.2619 31.0002 22.6202 31.2644 22.8844C31.5285 23.1486 31.8869 23.297 32.2605 23.297C32.6341 23.297 32.9924 23.1486 33.2566 22.8844L33.8566 22.2844C34.618 21.523 35.6508 21.0952 36.7276 21.0952C37.8045 21.0952 38.8373 21.523 39.5987 22.2844C40.3602 23.0459 40.788 24.0786 40.788 25.1555C40.788 26.2324 40.3602 27.2651 39.5987 28.0266L35.5194 32.093C35.1434 32.471 34.6962 32.7707 34.2035 32.9747C33.7109 33.1786 33.1827 33.2829 32.6495 33.2813C31.7349 33.2806 30.8473 32.971 30.1306 32.4027C29.414 31.8343 28.9104 31.0405 28.7015 30.15C28.6169 29.7867 28.3915 29.4719 28.0748 29.2747C27.7582 29.0776 27.3761 29.0143 27.0128 29.0989C26.6495 29.1834 26.3346 29.4088 26.1375 29.7255C25.9403 30.0422 25.8771 30.4242 25.9616 30.7875C26.3145 32.2956 27.1664 33.6402 28.3793 34.6034C29.5922 35.5665 31.0949 36.0917 32.6437 36.0938H32.6495C33.5524 36.0963 34.4467 35.9197 35.2809 35.5743C36.115 35.229 36.8724 34.7216 37.5093 34.0817L41.5816 30.0094C42.2196 29.3715 42.7257 28.6141 43.0711 27.7806C43.4164 26.9471 43.5941 26.0536 43.5941 25.1514C43.5941 24.2492 43.4164 23.3558 43.0711 22.5222C42.7257 21.6887 42.2196 20.9313 41.5816 20.2934Z" fill="#007AFF"/>
</svg>
