<svg width="60" height="60" viewBox="0 0 60 60" fill="none" xmlns="http://www.w3.org/2000/svg">
<circle cx="30" cy="30" r="30" fill="#D3D3D3"/>
<g clip-path="url(#clip0_174_257)">
<path d="M30.0272 31.3016C30.5706 31.3016 31.1277 31.0163 31.6984 30.4456L43.519 18.7473C43.0118 18.2672 42.0834 18.0272 40.7337 18.0272H18.8587C17.7083 18.0272 16.9112 18.2491 16.4674 18.6929L28.356 30.4456C28.9176 31.0163 29.4747 31.3016 30.0272 31.3016ZM15.3397 39.2499L24.9457 29.7527L15.3125 20.2554C15.1042 20.6449 15 21.3016 15 22.2255V37.2256C15 38.1857 15.1132 38.8605 15.3397 39.2499ZM19.2663 41.4375H41.1414C42.2736 41.4375 43.0661 41.2201 43.519 40.7854L33.7228 31.0842L32.8261 31.9946C31.9113 32.8641 30.9783 33.2989 30.0272 33.2989C29.067 33.2989 28.1341 32.8641 27.2283 31.9946L26.3179 31.0842L16.5489 40.7717C17.0652 41.2156 17.971 41.4375 19.2663 41.4375ZM44.6739 39.2364C44.8913 38.8379 45 38.1676 45 37.2256V22.2255C45 21.3107 44.9004 20.6676 44.7011 20.2962L35.0952 29.7527L44.6739 39.2364Z" fill="#007AFF"/>
</g>
<defs>
<clipPath id="clip0_174_257">
<rect width="30" height="23.4375" fill="white" transform="translate(15 18)"/>
</clipPath>
</defs>
</svg>
