<svg width="186" height="109" viewBox="0 0 186 109" fill="none" xmlns="http://www.w3.org/2000/svg">
<path d="M15.3441 57.2497C16.6838 57.0354 18.1957 55.7219 19.8797 53.3091C21.0729 51.6068 22.1029 49.8575 22.9696 48.0609C21.5674 48.2852 20.3072 48.7387 19.1891 49.4214C18.0695 50.0951 17.1262 50.8689 16.3591 51.7427C15.5907 52.6076 15.0223 53.4633 14.654 54.31C14.2857 55.1566 14.1465 55.8613 14.2365 56.4239C14.3408 57.0759 14.71 57.3512 15.3441 57.2497ZM29.5834 66.1281C28.9404 66.231 28.491 65.9411 28.2352 65.2584C27.6829 63.753 27.0896 61.9335 26.4552 59.8001C25.8297 57.6652 25.2955 55.2134 24.8525 52.4448C24.6925 51.4445 24.5555 50.4452 24.4416 49.4467C24.2194 50.0043 23.9071 50.6863 23.5049 51.4926C23.1115 52.2974 22.6383 53.1471 22.0853 54.0416C21.5412 54.9347 20.9312 55.788 20.2553 56.6014C19.5869 57.4045 18.8717 58.0868 18.1097 58.6484C17.3491 59.2189 16.558 59.5698 15.7363 59.7013C14.6468 59.8756 13.7067 59.6963 12.9161 59.1632C12.1359 58.6377 11.6651 57.8704 11.5036 56.8612C11.315 55.6823 11.4256 54.57 11.8354 53.5244C12.2437 52.4698 12.8678 51.5044 13.7077 50.6281C14.5551 49.7414 15.5424 48.956 16.6695 48.2719C17.7966 47.5878 18.9966 47.0157 20.2694 46.5556C21.5423 46.0955 22.8039 45.7654 24.0542 45.5654C24.2618 44.9735 24.5258 44.5053 24.8462 44.1609C25.1756 43.8151 25.51 43.6151 25.8494 43.5608C26.7514 43.4165 27.3046 43.9829 27.5089 45.26C27.5789 45.6977 27.6311 46.3671 27.6654 47.2684C27.7721 50.2832 28.0477 53.1794 28.492 55.9569C28.7307 57.4484 28.9707 58.7198 29.2122 59.7712C29.4626 60.8211 29.6823 61.679 29.8712 62.3449C30.0152 62.844 30.1645 63.3193 30.3192 63.7709C30.4739 64.2224 30.5719 64.5777 30.6134 64.8367C30.7305 65.569 30.3872 65.9995 29.5834 66.1281Z" fill="#007AFF"/>
<path d="M42.9809 94.1414C41.9327 94.7851 41.0229 94.4788 40.2514 93.2225C39.4184 91.866 38.4456 90.0487 37.3332 87.7705C35.8866 84.8273 34.8491 82.2908 34.2207 80.1613C33.4298 77.4734 33.4968 75.8455 34.4216 75.2775C34.6529 75.1355 34.9154 75.0964 35.2092 75.16C35.6399 75.2564 36.2425 75.555 37.0171 76.0559C38.2618 76.8729 39.586 77.7156 40.9894 78.5838C47.3235 82.5377 51.2882 84.0248 52.8836 83.0451C53.7006 82.5434 53.8351 81.2933 53.2871 79.2947C52.8377 77.6815 52.0769 75.803 51.0046 73.6594C50.2493 72.1703 49.5001 70.8207 48.7571 69.6106C48.2837 68.8399 48.3438 68.2723 48.9373 67.9078C49.5693 67.5197 50.1219 67.711 50.5953 68.4818L51.3194 69.661C52.3844 71.3951 53.2469 72.9034 53.9069 74.1856C55.1436 76.6316 55.8992 78.7521 56.1736 80.5471C56.5099 82.7712 55.9689 84.3187 54.5508 85.1896C52.2386 86.6095 48.8672 86.175 44.4366 83.886C42.7197 83.0086 40.2884 81.5298 37.1428 79.4494C37.7473 81.2116 38.5787 83.0148 39.637 84.8592C40.3416 86.0929 41.0205 87.2416 41.6736 88.3052L43.4956 91.2462C44.2623 92.4948 44.0908 93.4598 42.9809 94.1414Z" fill="#007AFF"/>
<path d="M63.9457 83.0919C63.4688 83.2876 63.0071 83.2228 62.5609 82.8976C62.3259 82.73 62.1415 82.483 62.0076 82.1567C61.8771 81.8387 61.7965 81.4514 61.7656 80.9949C61.5939 78.6701 61.5512 76.2191 61.6376 73.6418C61.762 70.2278 62.1536 67.3102 62.8125 64.8891C63.6196 61.9477 64.8307 60.1457 66.4456 59.4831C68.3535 58.7004 70.4012 59.3071 72.5889 61.3033C74.3668 62.9202 76.1195 65.2024 77.8469 68.15C79.1498 70.3724 80.2257 72.4825 81.0748 74.4805C81.2396 74.8821 81.247 75.2457 81.097 75.5712C80.947 75.8967 80.7005 76.1298 80.3574 76.2706C79.7131 76.5349 79.1991 76.2472 78.8155 75.4074C77.9834 73.6176 76.7795 71.5648 75.2037 69.2491C73.5349 70.0902 71.8347 71.1886 70.1033 72.5442C68.3767 73.888 66.7294 75.258 65.1612 76.6542C65.2372 78.0308 65.321 79.2478 65.4126 80.3051C65.4761 81.0318 65.3647 81.6299 65.0783 82.0994C64.7918 82.5688 64.4143 82.8997 63.9457 83.0919ZM65.0517 73.3849C66.2554 72.3632 67.7964 71.2226 69.6748 69.9631C71.5499 68.6952 73.0187 67.8433 74.0814 67.4073C71.2457 63.1644 69.0413 61.3657 67.4682 62.0111C65.7361 62.7218 64.9306 66.5131 65.0517 73.3849Z" fill="#007AFF"/>
<path d="M95.4881 70.7412C92.9663 72.6846 89.2507 71.5972 84.3412 67.4789C81.7364 65.2842 79.5892 63.0908 77.8998 60.8986C77.1047 59.867 77.18 58.9868 78.1257 58.258C79.1358 57.4795 80.095 57.6424 81.0031 58.7467C84.5076 63.0571 87.4874 66.042 89.9423 67.7013C91.7401 68.908 93.0724 69.1772 93.9392 68.5092C94.7487 67.8853 94.7492 65.9152 93.9405 62.5989C93.1319 59.2826 91.736 55.1228 89.7528 50.1196C89.6202 49.7993 89.5921 49.5183 89.6685 49.2767C89.7394 49.028 89.8644 48.8346 90.0435 48.6965C90.2585 48.5309 90.5063 48.4598 90.787 48.4833C91.0677 48.5067 91.3074 48.6474 91.5062 48.9053C91.6001 49.0271 91.6843 49.1734 91.7589 49.3443C93.4414 53.6315 94.6215 56.7186 95.2993 58.6057C95.9787 60.48 96.4871 62.2065 96.8243 63.785C97.1616 65.3635 97.2439 66.7446 97.0713 67.9282C96.9113 69.1134 96.3836 70.0511 95.4881 70.7412Z" fill="#007AFF"/>
<path d="M44.9492 53.7193C42.8674 54.4784 41.037 54.3564 39.4582 53.3532C38.0952 52.4928 37.0573 51.0854 36.3447 49.131C35.8427 47.7545 35.5145 46.2471 35.3601 44.6091C35.3109 44.0783 35.4075 43.6435 35.6499 43.3048C35.8976 42.9546 36.2042 42.7128 36.5696 42.5796C36.952 42.4402 37.3414 42.4522 37.738 42.6157C38.1399 42.7675 38.4308 43.0899 38.6105 43.5827C38.6817 43.7782 38.7295 44.0015 38.7536 44.2526C38.8957 45.8566 39.1851 47.2577 39.622 48.4559C40.1116 49.7985 40.7414 50.7337 41.5115 51.2616C42.287 51.7778 43.1633 51.8578 44.1405 51.5015C46.3414 50.699 47.5253 48.6788 47.6925 45.4409C47.7684 43.8537 47.6163 42.3014 47.2364 40.784C47.0944 40.21 47.0987 39.7464 47.249 39.3931C47.4048 39.0282 47.6739 38.7761 48.0563 38.6367C48.3962 38.5127 48.7354 38.519 49.074 38.6555C49.4211 38.7889 49.7022 39.0714 49.9174 39.5032C50.5328 40.7421 51.2112 41.9292 51.9524 43.0645C52.6906 44.1913 53.3207 45.0349 53.8428 45.5955C54.1081 45.8742 54.2841 46.1325 54.3709 46.3704C54.6033 47.0077 54.4391 47.4286 53.8782 47.6331C53.4619 47.785 53.0615 47.7432 52.6773 47.5079C52.293 47.2725 51.6098 46.6263 50.6275 45.5693C50.2554 45.1562 49.9951 44.8516 49.8466 44.6555C49.7257 49.5516 48.0932 52.5729 44.9492 53.7193Z" fill="#007AFF"/>
<path d="M56.6922 32.1442C56.2163 32.3177 55.8006 32.2863 55.4449 32.0502C55.0977 31.811 54.8513 31.4916 54.7057 31.0923C54.5415 30.6419 54.5198 30.1733 54.6407 29.6863C54.7616 29.1994 55.077 28.863 55.5868 28.6771C56.0457 28.5098 56.456 28.5527 56.8179 28.8058C57.1767 29.0505 57.4304 29.3767 57.5791 29.7846C57.7402 30.2265 57.7631 30.6851 57.6476 31.1604C57.529 31.6272 57.2105 31.9551 56.6922 32.1442ZM62.3308 46.2617C61.5916 46.5312 60.9676 46.1137 60.459 45.0092L57.9192 39.5092C57.371 38.3227 56.9947 37.4491 56.7902 36.8883C56.31 35.5712 56.5882 34.7236 57.6249 34.3456C58.5596 34.0048 59.2717 34.5057 59.7612 35.8483C60.1485 36.9104 60.6729 38.2692 61.3343 39.9246C61.9925 41.5715 62.4781 42.8241 62.7911 43.6823C63.3085 45.1013 63.1551 45.9611 62.3308 46.2617Z" fill="#007AFF"/>
<path d="M76.9188 39.0863C74.7265 39.8857 72.753 39.9651 70.9984 39.3245C69.2406 38.6754 67.9976 37.3524 67.2695 35.3555C66.7273 33.8685 66.6244 32.4378 66.9609 31.0636C67.2974 29.6894 67.9616 28.4749 68.9537 27.42C69.9426 26.3566 71.1509 25.5646 72.5784 25.0441C73.5641 24.6847 74.5106 24.5081 75.4177 24.5142C76.5568 24.5225 77.2734 24.9303 77.5678 25.7375C77.6669 26.0094 77.6521 26.2988 77.5234 26.6057C77.4 26.901 77.0919 27.1385 76.599 27.3182C76.2846 27.4329 75.8392 27.5182 75.2628 27.5744C74.6918 27.6189 74.1514 27.7342 73.6415 27.9201C72.2565 28.4251 71.1823 29.2548 70.4191 30.4092C69.6644 31.5604 69.5504 32.8583 70.0771 34.3029C70.5542 35.6115 71.3548 36.4604 72.4787 36.8496C73.6026 37.2389 74.8528 37.1825 76.2294 36.6806C77.5805 36.188 78.7605 35.4111 79.7695 34.35C80.0143 34.0971 80.2768 33.9195 80.5573 33.8173C80.8377 33.715 81.0733 33.7013 81.2643 33.7761C81.4552 33.8509 81.5894 33.9945 81.6669 34.2069C81.8559 34.7253 81.7069 35.3332 81.2199 36.0306C80.8294 36.5966 80.2329 37.1654 79.4306 37.7372C78.6398 38.3144 77.8026 38.7641 76.9188 39.0863Z" fill="#007AFF"/>
<path d="M93.1914 34.3698C92.6301 34.6818 91.9514 34.5312 91.1554 33.9182C89.3385 32.548 86.3255 28.076 82.1163 20.5023C81.5056 19.4034 81.7062 18.5728 82.7182 18.0104C83.7222 17.4524 84.5362 17.7347 85.1601 18.8573C85.5335 19.5293 86.0054 20.4157 86.5757 21.5163C87.4694 23.2547 88.3512 24.9066 89.2212 26.4719C90.0691 27.9977 90.8793 29.3066 91.6517 30.3984C91.8815 28.1494 92.2326 26.128 92.7049 24.334C93.1852 22.5357 93.9448 20.4579 94.9837 18.1008C95.2489 17.4981 95.6226 17.0627 96.1049 16.7947C96.516 16.5663 96.8199 16.6198 97.0168 16.9554C97.3111 17.485 97.2862 18.1663 96.942 18.9992C96.235 20.7062 95.7143 22.2735 95.3798 23.7011C97.5033 24.487 99.4057 24.987 101.087 25.2011C101.738 25.2739 102.189 25.5357 102.439 25.9863C102.65 26.3658 102.499 26.6983 101.985 26.9839C101.376 27.3222 99.9099 27.3092 97.5862 26.945C96.7183 26.8169 95.8169 26.6194 94.8821 26.3525C94.5961 28.3326 94.3969 29.7988 94.2846 30.7512C94.1354 32.0654 93.9485 33.023 93.7237 33.6239C93.5902 33.9982 93.4128 34.2468 93.1914 34.3698Z" fill="#007AFF"/>
<g clip-path="url(#clip0_57_29)">
<path d="M108.691 62.4688C109.594 59.5901 111.877 58.4019 114.125 57.5814C117.266 56.4818 120.56 55.7077 123.819 55.3013C138.88 53.8232 152.301 58.3055 164.055 67.7547C167.035 70.1678 169.721 73.0458 172.83 76.0294C174.253 72.2756 173.182 68.0785 174.439 64.1218C175.88 65.1994 175.925 66.6281 175.994 67.8116C176.257 72.6684 176.453 77.58 176.526 82.4791C176.541 84.8335 175.776 85.6833 173.571 85.4554C168.97 85.0421 164.937 83.2633 161.595 80.1317C161.484 79.9965 161.521 79.6287 161.514 79.0708C165.016 77.4512 167.379 81.72 170.974 81.0387C168.242 75.4935 163.79 71.6901 159.045 68.3517C154.066 64.8654 148.85 61.9117 143.01 60.2559C137.293 58.6127 131.51 58.2629 125.556 58.3909C119.614 58.3962 114.084 59.8682 108.691 62.4688Z" fill="#007AFF"/>
</g>
<defs>
<clipPath id="clip0_57_29">
<rect width="50" height="61" fill="white" transform="translate(108 61.6227) rotate(-39.2314)"/>
</clipPath>
</defs>
</svg>
