<svg width="60" height="60" viewBox="0 0 60 60" fill="none" xmlns="http://www.w3.org/2000/svg">
<circle cx="30" cy="30" r="30" fill="#D3D3D3"/>
<g clip-path="url(#clip0_42_252)">
<path d="M18.5043 41.6145H40.4956C41.8348 41.6145 42.837 41.2862 43.5022 40.6296C44.1674 39.973 44.5 38.9838 44.5 37.6621V25.0529C44.5 23.7225 44.1674 22.7311 43.5022 22.0788C42.837 21.4266 41.8348 21.1004 40.4956 21.1004H18.5043C17.1739 21.1004 16.1739 21.4266 15.5043 22.0788C14.8348 22.7311 14.5 23.7225 14.5 25.0529V37.6621C14.5 38.9838 14.8348 39.973 15.5043 40.6296C16.1739 41.2862 17.1739 41.6145 18.5043 41.6145ZM22.9233 22.2279H24.932V19.9341C24.932 19.4417 25.0702 19.0616 25.3467 18.7937C25.6231 18.5259 26.0162 18.392 26.5259 18.392H32.4741C32.9751 18.392 33.3639 18.5259 33.6404 18.7937C33.9168 19.0616 34.0551 19.4417 34.0551 19.9341V22.202H36.0637V20.0767C36.0637 18.8585 35.7527 17.9579 35.1307 17.3747C34.5087 16.7916 33.6102 16.5 32.4352 16.5H26.5518C25.446 16.5 24.5648 16.7916 23.9082 17.3747C23.2516 17.9579 22.9233 18.8585 22.9233 20.0767V22.2279Z" fill="#007AFF"/>
</g>
<defs>
<clipPath id="clip0_42_252">
<rect width="30" height="27.6674" fill="white" transform="translate(14.5 16.5)"/>
</clipPath>
</defs>
</svg>
